<svg id="Layer_1" data-name="Layer 1" xmlns="http://www.w3.org/2000/svg" width="300" height="300" viewBox="0 0 300 300">
  <title>spinner</title>
  <path d="M150,149.44H300A149.53,149.53,0,0,0,256.07,43.38L150,149.44h0Z" style="fill: #f04924"/>
  <path d="M256.07,43.38A149.53,149.53,0,0,0,150-.56v150Z" style="fill: #fba919"/>
  <path d="M150-.56A149.53,149.53,0,0,0,43.93,43.38L150,149.44v-150Z" style="fill: #f9df15"/>
  <path d="M150,149.44L256.07,255.51A149.53,149.53,0,0,0,300,149.44H150Z" style="fill: #da1f26"/>
  <path d="M150,149.44v150a149.53,149.53,0,0,0,106.07-43.93L150,149.44h0Z" style="fill: #b42024"/>
  <path d="M150,149.44L43.93,255.51A149.53,149.53,0,0,0,150,299.44v-150h0Z" style="fill: #6b9a40"/>
  <path d="M150,149.44L43.93,43.38A149.53,149.53,0,0,0,0,149.44H150Z" style="fill: #f6ec13"/>
  <path d="M0,149.44A149.53,149.53,0,0,0,43.93,255.51L150,149.44H0Z" style="fill: #8bc63f"/>
</svg>
